<svg version="1.1" xmlns="http://www.w3.org/2000/svg" viewBox="0 0 118.67141440220723 137.42281220508812" width="118.67141440220723" height="137.42281220508812">
  <!-- svg-source:excalidraw -->
  
  <defs>
    <style class="style-fonts">
      
    </style>
    
  </defs>
  <g stroke-linecap="round" transform="translate(10 41.19301250591161) rotate(0 49.19149647268455 43.114899849588255)"><path d="M0 0 C28.58 0, 57.16 0, 98.38 0 M0 0 C26.49 0, 52.99 0, 98.38 0 M98.38 0 C98.38 31.34, 98.38 62.69, 98.38 86.23 M98.38 0 C98.38 28.08, 98.38 56.15, 98.38 86.23 M98.38 86.23 C64.54 86.23, 30.69 86.23, 0 86.23 M98.38 86.23 C62.39 86.23, 26.4 86.23, 0 86.23 M0 86.23 C0 68.82, 0 51.4, 0 0 M0 86.23 C0 68.33, 0 50.43, 0 0" stroke="#1e1e1e" stroke-width="4" fill="none"></path></g><g stroke-linecap="round"><g transform="translate(103.82813012631811 22.666086660519795) rotate(0 -44.41194724688785 0)"><path d="M0 0 C-19.33 0, -38.66 0, -88.82 0 M0 0 C-34.86 0, -69.72 0, -88.82 0" stroke="#1e1e1e" stroke-width="4" fill="none"></path></g><g transform="translate(103.82813012631811 22.666086660519795) rotate(0 -44.41194724688785 0)"><path d="M0 0 L-13.59 6.34 L-13.59 -6.34 L0 0" stroke="none" stroke-width="0" fill="#1e1e1e" fill-rule="evenodd"></path><path d="M0 0 C-2.96 1.38, -5.92 2.76, -13.59 6.34 M0 0 C-5.34 2.49, -10.67 4.98, -13.59 6.34 M-13.59 6.34 C-13.59 3.17, -13.59 -0.01, -13.59 -6.34 M-13.59 6.34 C-13.59 1.56, -13.59 -3.23, -13.59 -6.34 M-13.59 -6.34 C-10.45 -4.87, -7.31 -3.41, 0 0 M-13.59 -6.34 C-8.71 -4.06, -3.83 -1.78, 0 0 M0 0 C0 0, 0 0, 0 0 M0 0 C0 0, 0 0, 0 0" stroke="#1e1e1e" stroke-width="4" fill="none"></path></g><g transform="translate(103.82813012631811 22.666086660519795) rotate(0 -44.41194724688785 0)"><path d="M-88.82 0 L-75.23 -6.34 L-75.23 6.34 L-88.82 0" stroke="none" stroke-width="0" fill="#1e1e1e" fill-rule="evenodd"></path><path d="M-88.82 0 C-85.87 -1.38, -82.91 -2.76, -75.23 -6.34 M-88.82 0 C-83.49 -2.49, -78.15 -4.98, -75.23 -6.34 M-75.23 -6.34 C-75.23 -3.17, -75.23 0.01, -75.23 6.34 M-75.23 -6.34 C-75.23 -1.56, -75.23 3.23, -75.23 6.34 M-75.23 6.34 C-78.37 4.87, -81.51 3.41, -88.82 0 M-75.23 6.34 C-80.11 4.06, -85 1.78, -88.82 0 M-88.82 0 C-88.82 0, -88.82 0, -88.82 0 M-88.82 0 C-88.82 0, -88.82 0, -88.82 0" stroke="#1e1e1e" stroke-width="4" fill="none"></path></g></g><mask></mask><g stroke-linecap="round"><g transform="translate(10.368464052782883 41.04816081984973) rotate(0 0 -15.158192992857948)"><path d="M0 0 C0 -10.64, 0 -21.29, 0 -30.32" stroke="#1e1e1e" stroke-width="4.5" fill="none" stroke-dasharray="1.5 10"></path></g></g><mask></mask><g stroke-linecap="round"><g transform="translate(108.67141440220723 40.3163859857159) rotate(0 0 -15.158192992857948)"><path d="M0 0 C0 -6.24, 0 -12.49, 0 -30.32" stroke="#1e1e1e" stroke-width="4.5" fill="none" stroke-dasharray="1.5 10"></path></g></g><mask></mask></svg>