<svg version="1.1" xmlns="http://www.w3.org/2000/svg" viewBox="0 0 157.9157315828304 106.22979969917651" width="157.9157315828304" height="106.22979969917651">
  <!-- svg-source:excalidraw -->
  
  <defs>
    <style class="style-fonts">
      
    </style>
    
  </defs>
  <g stroke-linecap="round" transform="translate(49.53273863746131 10) rotate(0 49.19149647268455 43.114899849588255)"><path d="M0 0 C25.22 0, 50.45 0, 98.38 0 M0 0 C33.68 0, 67.36 0, 98.38 0 M98.38 0 C98.38 28.94, 98.38 57.89, 98.38 86.23 M98.38 0 C98.38 30.06, 98.38 60.12, 98.38 86.23 M98.38 86.23 C75.72 86.23, 53.05 86.23, 0 86.23 M98.38 86.23 C65.08 86.23, 31.77 86.23, 0 86.23 M0 86.23 C0 66.97, 0 47.72, 0 0 M0 86.23 C0 59.46, 0 32.68, 0 0" stroke="#1e1e1e" stroke-width="4" fill="none"></path></g><g stroke-linecap="round"><g transform="translate(23.10108850684651 14.019290928674309) rotate(0 0 38.64526542764543)"><path d="M0 0 C0 21.87, 0 43.75, 0 77.29 M0 0 C0 18.83, 0 37.66, 0 77.29" stroke="#1e1e1e" stroke-width="4" fill="none"></path></g><g transform="translate(23.10108850684651 14.019290928674309) rotate(0 0 38.64526542764543)"><path d="M0 0 L6.34 13.59 L-6.34 13.59 L0 0" stroke="none" stroke-width="0" fill="#1e1e1e" fill-rule="evenodd"></path><path d="M0 0 C1.79 3.85, 3.59 7.69, 6.34 13.59 M0 0 C1.54 3.31, 3.09 6.62, 6.34 13.59 M6.34 13.59 C1.36 13.59, -3.61 13.59, -6.34 13.59 M6.34 13.59 C1.64 13.59, -3.06 13.59, -6.34 13.59 M-6.34 13.59 C-3.93 8.44, -1.53 3.28, 0 0 M-6.34 13.59 C-4.89 10.48, -3.43 7.36, 0 0 M0 0 C0 0, 0 0, 0 0 M0 0 C0 0, 0 0, 0 0" stroke="#1e1e1e" stroke-width="4" fill="none"></path></g><g transform="translate(23.10108850684651 14.019290928674309) rotate(0 0 38.64526542764543)"><path d="M0 77.29 L-6.34 63.7 L6.34 63.7 L0 77.29" stroke="none" stroke-width="0" fill="#1e1e1e" fill-rule="evenodd"></path><path d="M0 77.29 C-1.79 73.44, -3.59 69.6, -6.34 63.7 M0 77.29 C-1.54 73.98, -3.09 70.67, -6.34 63.7 M-6.34 63.7 C-1.36 63.7, 3.61 63.7, 6.34 63.7 M-6.34 63.7 C-1.64 63.7, 3.06 63.7, 6.34 63.7 M6.34 63.7 C3.93 68.85, 1.53 74.01, 0 77.29 M6.34 63.7 C4.89 66.81, 3.43 69.93, 0 77.29 M0 77.29 C0 77.29, 0 77.29, 0 77.29 M0 77.29 C0 77.29, 0 77.29, 0 77.29" stroke="#1e1e1e" stroke-width="4" fill="none"></path></g></g><mask></mask><g stroke-linecap="round"><g transform="translate(50.90581742478935 10.408125949034002) rotate(0 -20.452908712394674 0)"><path d="M0 0 C-14.64 0, -29.28 0, -40.91 0" stroke="#1e1e1e" stroke-width="4.5" fill="none" stroke-dasharray="1.5 10"></path></g></g><mask></mask><g stroke-linecap="round"><g transform="translate(50.897557036234275 95.95846392548992) rotate(0 -19.819120425609754 0)"><path d="M0 0 C-12.84 0, -25.68 0, -39.64 0" stroke="#1e1e1e" stroke-width="4.5" fill="none" stroke-dasharray="1.5 10"></path></g></g><mask></mask></svg>