<svg version="1.1" xmlns="http://www.w3.org/2000/svg" viewBox="0 0 118.3829929453691 106.22979969917651" width="118.3829929453691" height="106.22979969917651">
  <!-- svg-source:excalidraw -->
  
  <defs>
    <style class="style-fonts">
      
    </style>
    
  </defs>
  <g stroke-linecap="round" transform="translate(10 10) rotate(0 49.19149647268455 43.114899849588255)"><path d="M0 0 C31.2 0, 62.39 0, 98.38 0 M0 0 C38.68 0, 77.36 0, 98.38 0 M98.38 0 C98.38 26.79, 98.38 53.59, 98.38 86.23 M98.38 0 C98.38 28.86, 98.38 57.73, 98.38 86.23 M98.38 86.23 C78.28 86.23, 58.18 86.23, 0 86.23 M98.38 86.23 C77.01 86.23, 55.64 86.23, 0 86.23 M0 86.23 C0 66.55, 0 46.86, 0 0 M0 86.23 C0 57.87, 0 29.5, 0 0" stroke="#1e1e1e" stroke-width="4" fill="none"></path></g><g stroke-linecap="round"><g transform="translate(99.49527585182148 25.407087606607092) rotate(0 -42.15517227019939 0)"><path d="M0 0 C-19.51 0, -39.02 0, -84.31 0 M0 0 C-18.52 0, -37.05 0, -84.31 0" stroke="#1e1e1e" stroke-width="4" fill="none"></path></g><g transform="translate(99.49527585182148 25.407087606607092) rotate(0 -42.15517227019939 0)"><path d="M0 0 L-13.59 6.34 L-13.59 -6.34 L0 0" stroke="none" stroke-width="0" fill="#1e1e1e" fill-rule="evenodd"></path><path d="M0 0 C-3.15 1.47, -6.29 2.93, -13.59 6.34 M0 0 C-2.99 1.39, -5.97 2.79, -13.59 6.34 M-13.59 6.34 C-13.59 2.3, -13.59 -1.75, -13.59 -6.34 M-13.59 6.34 C-13.59 3.11, -13.59 -0.12, -13.59 -6.34 M-13.59 -6.34 C-10.68 -4.98, -7.76 -3.62, 0 0 M-13.59 -6.34 C-8.23 -3.84, -2.86 -1.33, 0 0 M0 0 C0 0, 0 0, 0 0 M0 0 C0 0, 0 0, 0 0" stroke="#1e1e1e" stroke-width="4" fill="none"></path></g><g transform="translate(99.49527585182148 25.407087606607092) rotate(0 -42.15517227019939 0)"><path d="M-84.31 0 L-70.72 -6.34 L-70.72 6.34 L-84.31 0" stroke="none" stroke-width="0" fill="#1e1e1e" fill-rule="evenodd"></path><path d="M-84.31 0 C-81.16 -1.47, -78.02 -2.93, -70.72 -6.34 M-84.31 0 C-81.32 -1.39, -78.34 -2.79, -70.72 -6.34 M-70.72 -6.34 C-70.72 -2.3, -70.72 1.75, -70.72 6.34 M-70.72 -6.34 C-70.72 -3.11, -70.72 0.12, -70.72 6.34 M-70.72 6.34 C-73.63 4.98, -76.55 3.62, -84.31 0 M-70.72 6.34 C-76.08 3.84, -81.45 1.33, -84.31 0 M-84.31 0 C-84.31 0, -84.31 0, -84.31 0 M-84.31 0 C-84.31 0, -84.31 0, -84.31 0" stroke="#1e1e1e" stroke-width="4" fill="none"></path></g></g><mask></mask></svg>