<svg version="1.1" xmlns="http://www.w3.org/2000/svg" viewBox="0 0 118.3829929453691 106.22979969917651" width="118.3829929453691" height="106.22979969917651">
  <!-- svg-source:excalidraw -->
  
  <defs>
    <style class="style-fonts">
      
    </style>
    
  </defs>
  <g stroke-linecap="round" transform="translate(10 10) rotate(0 49.19149647268455 43.114899849588255)"><path d="M0 0 C28.87 0, 57.75 0, 98.38 0 M0 0 C37.67 0, 75.34 0, 98.38 0 M98.38 0 C98.38 18.76, 98.38 37.52, 98.38 86.23 M98.38 0 C98.38 20.01, 98.38 40.02, 98.38 86.23 M98.38 86.23 C78.09 86.23, 57.8 86.23, 0 86.23 M98.38 86.23 C64.79 86.23, 31.2 86.23, 0 86.23 M0 86.23 C0 61.71, 0 37.18, 0 0 M0 86.23 C0 68.42, 0 50.61, 0 0" stroke="#1e1e1e" stroke-width="4" fill="none"></path></g><g stroke-linecap="round"><g transform="translate(31.206831176886794 18.887867483608716) rotate(0 0 34.563879061475745)"><path d="M0 0 C0 27.36, 0 54.73, 0 69.13 M0 0 C0 26.16, 0 52.31, 0 69.13" stroke="#1e1e1e" stroke-width="4" fill="none"></path></g><g transform="translate(31.206831176886794 18.887867483608716) rotate(0 0 34.563879061475745)"><path d="M0 0 L6.34 13.59 L-6.34 13.59 L0 0" stroke="none" stroke-width="0" fill="#1e1e1e" fill-rule="evenodd"></path><path d="M0 0 C2.51 5.38, 5.02 10.76, 6.34 13.59 M0 0 C2.4 5.14, 4.8 10.29, 6.34 13.59 M6.34 13.59 C2.15 13.59, -2.03 13.59, -6.34 13.59 M6.34 13.59 C1.3 13.59, -3.74 13.59, -6.34 13.59 M-6.34 13.59 C-4.38 9.38, -2.41 5.17, 0 0 M-6.34 13.59 C-3.87 8.31, -1.41 3.02, 0 0 M0 0 C0 0, 0 0, 0 0 M0 0 C0 0, 0 0, 0 0" stroke="#1e1e1e" stroke-width="4" fill="none"></path></g><g transform="translate(31.206831176886794 18.887867483608716) rotate(0 0 34.563879061475745)"><path d="M0 69.13 L-6.34 55.53 L6.34 55.53 L0 69.13" stroke="none" stroke-width="0" fill="#1e1e1e" fill-rule="evenodd"></path><path d="M0 69.13 C-2.51 63.75, -5.02 58.36, -6.34 55.53 M0 69.13 C-2.4 63.98, -4.8 58.84, -6.34 55.53 M-6.34 55.53 C-2.15 55.53, 2.03 55.53, 6.34 55.53 M-6.34 55.53 C-1.3 55.53, 3.74 55.53, 6.34 55.53 M6.34 55.53 C4.38 59.75, 2.41 63.96, 0 69.13 M6.34 55.53 C3.87 60.82, 1.41 66.11, 0 69.13 M0 69.13 C0 69.13, 0 69.13, 0 69.13 M0 69.13 C0 69.13, 0 69.13, 0 69.13" stroke="#1e1e1e" stroke-width="4" fill="none"></path></g></g><mask></mask></svg>